# xmcd
#
# Track frame offsets:
#	150
#	22137
#	45181
#	68751
#	88192
#	114918
#	137183
#	157423
#	181657
#	201221
#
# Disc length: 2981 seconds
#
# Revision: 165659784
# Processed by: cddbd v1.5.2PL0 Copyright (c) Steve Scherf et al.
# Submitted via: EZCDAudioConverter 8.0.2.1
#
DISCID=860ba30a
DTITLE=Lâm Hùng, Thanh Trúc - Bình Yên Từ Trái Tim Em
DYEAR=2004
DGENRE=Contemporary Pop
TTITLE0=Lâm Hùng - Mong được gần em hơn
TTITLE1=Thanh Trúc - Buồn như thông xanh
TTITLE2=Lâm Hùng - Tiễn đưa
TTITLE3=Thanh Trúc - Trái tim mong manh
TTITLE4=Lâm Hùng - Người tình (remix)
TTITLE5=Thanh Trúc - Thuyền lá
TTITLE6=Lâm Hùng - Tráitim mùa thu (remix)
TTITLE7=Thanh Trúc - Tình vấn vương
TTITLE8=Lâm Hùng - Chuyện đời (remix)
TTITLE9=Thanh Trúc - Bình Yên Từ Trái Tim Em
EXTD=
EXTT0=
EXTT1=
EXTT2=
EXTT3=
EXTT4=
EXTT5=
EXTT6=
EXTT7=
EXTT8=
EXTT9=
PLAYORDER=
